<svg width="36" height="36" viewBox="0 0 36 36" fill="none" xmlns="http://www.w3.org/2000/svg">
<path d="M33.53 18.76L26.6 15.57V6.43002C26.5968 6.23827 26.5385 6.05147 26.4322 5.8919C26.3258 5.73233 26.1758 5.60671 26 5.53003L18.5 2.08002C18.3683 2.0191 18.225 1.98755 18.08 1.98755C17.9349 1.98755 17.7916 2.0191 17.66 2.08002L10.16 5.53003C9.9864 5.61036 9.8395 5.73878 9.7367 5.90008C9.63389 6.06137 9.5795 6.24876 9.57998 6.44002V15.58L2.67998 18.76C2.5064 18.8404 2.3595 18.9688 2.2567 19.1301C2.15389 19.2914 2.09951 19.4788 2.09998 19.67V29.45C2.09951 29.6413 2.15389 29.8287 2.2567 29.99C2.3595 30.1513 2.5064 30.2797 2.67998 30.36L10.18 33.81C10.3116 33.8709 10.4549 33.9025 10.6 33.9025C10.745 33.9025 10.8883 33.8709 11.02 33.81L18.1 30.55L25.18 33.81C25.3116 33.8709 25.4549 33.9025 25.6 33.9025C25.745 33.9025 25.8883 33.8709 26.02 33.81L33.52 30.36C33.6936 30.2797 33.8405 30.1513 33.9433 29.99C34.0461 29.8287 34.1004 29.6413 34.1 29.45V19.67C34.1013 19.4798 34.0484 19.2932 33.9475 19.132C33.8465 18.9708 33.7017 18.8418 33.53 18.76ZM25.61 22L20.5 19.67L25.61 17.32L30.72 19.67L25.61 22ZM24.61 15.56L18.17 18.56V10.87C18.2905 10.8647 18.4091 10.8376 18.52 10.79L24.6 8.00002V15.58L24.61 15.56ZM18.1 4.08002L23.21 6.43002L18.1 8.78002L13 6.43002L18.1 4.08002ZM10.6 17.31L15.71 19.66L10.6 22L5.48998 19.67L10.6 17.31ZM17.1 28.8L10.6 31.8V24.11C10.7395 24.1017 10.8758 24.0642 11 24L17.08 21.2L17.1 28.8ZM32.1 28.8L25.64 31.8V24.11C25.7659 24.0965 25.888 24.0592 26 24L32.08 21.2L32.1 28.8Z" fill="#141313"/>
</svg>
