<svg width="32" height="32" viewBox="0 0 32 32" fill="none" xmlns="http://www.w3.org/2000/svg">
<path d="M5.72404 14.276L15.0574 4.94266C15.3074 4.6927 15.6465 4.55228 16 4.55228C16.3536 4.55228 16.6927 4.6927 16.9427 4.94266L26.276 14.276C26.5261 14.526 26.6666 14.8651 26.6667 15.2187V28C26.6667 28.3536 26.5262 28.6928 26.2762 28.9428C26.0261 29.1929 25.687 29.3333 25.3334 29.3333H18.6667V20H13.3334V29.3333H6.66671C6.31309 29.3333 5.97395 29.1929 5.7239 28.9428C5.47385 28.6928 5.33337 28.3536 5.33337 28V15.2187C5.33345 14.8651 5.47398 14.526 5.72404 14.276Z" fill="#9E9E9E"/>
</svg>
