<svg width="32" height="32" viewBox="0 0 32 32" fill="none" xmlns="http://www.w3.org/2000/svg">
<path d="M26.3781 9.03441L18.4438 7.88129L14.8969 0.690661C14.8 0.493786 14.6406 0.334411 14.4438 0.237536C13.95 -0.00621407 13.35 0.196911 13.1031 0.690661L9.55625 7.88129L1.62187 9.03441C1.40312 9.06566 1.20312 9.16879 1.05 9.32504C0.864878 9.51531 0.762869 9.77129 0.766384 10.0367C0.7699 10.3022 0.878654 10.5554 1.06875 10.7407L6.80938 16.3375L5.45313 24.2407C5.42132 24.4245 5.44167 24.6136 5.51185 24.7865C5.58204 24.9593 5.69926 25.1091 5.85022 25.2187C6.00118 25.3284 6.17984 25.3935 6.36594 25.4068C6.55204 25.42 6.73814 25.3809 6.90313 25.2938L14 21.5625L21.0969 25.2938C21.2906 25.3969 21.5156 25.4313 21.7313 25.3938C22.275 25.3 22.6406 24.7844 22.5469 24.2407L21.1906 16.3375L26.9313 10.7407C27.0875 10.5875 27.1906 10.3875 27.2219 10.1688C27.3063 9.62191 26.925 9.11566 26.3781 9.03441V9.03441Z" fill="#9E9E9E"/>
</svg>
