<svg width="48" height="48" viewBox="0 0 48 48" fill="none" xmlns="http://www.w3.org/2000/svg">
<rect width="48" height="48" rx="24" fill="white"/>
<path d="M24.0043 17.9091V31H22.1889L15.5348 21.3991H15.4134V31H13.4382V17.9091H15.2663L21.9268 27.5227H22.0483V17.9091H24.0043ZM31.9735 17.9091H33.9423V27.1903C33.9423 28.0298 33.7761 28.7479 33.4437 29.3445C33.1156 29.9411 32.6532 30.397 32.0566 30.7124C31.46 31.0234 30.7612 31.179 29.9601 31.179C29.2228 31.179 28.5602 31.0447 27.9721 30.7763C27.3883 30.5078 26.926 30.1179 26.585 29.6065C26.2484 29.0909 26.0801 28.4645 26.0801 27.7273H28.0424C28.0424 28.0895 28.1255 28.4027 28.2917 28.6669C28.4622 28.9311 28.6944 29.1378 28.9885 29.2869C29.2868 29.4318 29.6277 29.5043 30.0112 29.5043C30.4288 29.5043 30.7825 29.4169 31.0723 29.2422C31.3663 29.0632 31.59 28.8011 31.7434 28.456C31.8968 28.1108 31.9735 27.6889 31.9735 27.1903V17.9091Z" fill="#141313"/>
</svg>
